{"seasons":[{"air_date":"2019-03-20","episode_count":3,"id":120890,"name":"Especiales","overview":"","season_number":0,"cover":"http:\/\/216.244.65.74:25461\/images\/fc6829aa1679672d648acbb7bd9ca869.jpg","cover_big":"http:\/\/216.244.65.74:25461\/images\/fc6829aa1679672d648acbb7bd9ca869.jpg"},{"air_date":"2018-07-14","episode_count":12,"id":106013,"name":"Temporada 1","overview":"","season_number":1,"cover":"http:\/\/216.244.65.74:25461\/images\/083ae346b1463a16bae3da6b9d5dabe1.jpg","cover_big":"http:\/\/216.244.65.74:25461\/images\/083ae346b1463a16bae3da6b9d5dabe1.jpg"},{"air_date":"2019-10-25","episode_count":9,"id":131795,"name":"Temporada 2","overview":"","season_number":2,"cover":"http:\/\/216.244.65.74:25461\/images\/5a5004717181ee3260730820124132dc.jpg","cover_big":"http:\/\/216.244.65.74:25461\/images\/5a5004717181ee3260730820124132dc.jpg"}],"info":{"name":"High Score Girl","cover":"http:\/\/kp-thebestiptv.com:8080\/images\/766ab75ef29c3606051e3ecd1f38ed69.jpg","plot":"Haruo Yaguchi es un chico de 12 a\u00f1os con un \u00fanico talento: los videojuegos. En comparaci\u00f3n con su aburrida vida, Haruo es toda una leyenda en las salas de arcade, donde pasa las horas en vez de estudiar. Pero un d\u00eda, todo cambiar\u00e1 cuando el ni\u00f1o descubra que Akira Oono, su compa\u00f1era de clase modelo, tambi\u00e9n es una gamer con m\u00e1s habilidad que \u00e9l.","cast":"Sayumi Suzushiro, Yuuki Hirose, Daiki Yamashita, Satomi Arai, Choo","director":"","genre":"Comedia, Animaci\u00f3n, Action & Adventure","releaseDate":"2018-07-14","last_modified":"1588686688","rating":"9","rating_5based":4.5,"backdrop_path":["http:\/\/216.244.65.74:25461\/images\/87533535e2f9f67ec79d0a25fa82b284.jpg"],"youtube_trailer":"","episode_run_time":"24","category_id":"55"},"episodes":{"1":[{"id":"58178","episode_num":1,"title":"High Score Girl - S01E01 - Episodio 1","container_extension":"mp4","info":{"releasedate":"2018-07-14","plot":"","duration_secs":1505,"duration":"00:25:05","movie_image":"http:\/\/216.244.65.74:25461\/images\/d9d052b27c1ead0bac840cbe0c884439.jpg","video":{"index":0,"codec_name":"h264","codec_long_name":"H.264 \/ AVC \/ MPEG-4 AVC \/ MPEG-4 part 10","profile":"High","codec_type":"video","codec_time_base":"1001\/60000","codec_tag_string":"avc1","codec_tag":"0x31637661","width":1280,"height":720,"coded_width":1280,"coded_height":720,"has_b_frames":2,"sample_aspect_ratio":"1:1","display_aspect_ratio":"16:9","pix_fmt":"yuv420p","level":31,"chroma_location":"left","refs":1,"is_avc":"true","nal_length_size":"4","r_frame_rate":"30000\/1001","avg_frame_rate":"30000\/1001","time_base":"1\/30000","start_pts":0,"start_time":"0.000000","duration_ts":45168123,"duration":"1505.604100","bit_rate":"1742810","bits_per_raw_sample":"8","nb_frames":"45123","disposition":{"default":1,"dub":0,"original":0,"comment":0,"lyrics":0,"karaoke":0,"forced":0,"hearing_impaired":0,"visual_impaired":0,"clean_effects":0,"attached_pic":0,"timed_thumbnails":0},"tags":{"language":"und","handler_name":"VideoHandler"}},"audio":{"index":1,"codec_name":"aac","codec_long_name":"AAC (Advanced Audio Coding)","profile":"LC","codec_type":"audio","codec_time_base":"1\/48000","codec_tag_string":"mp4a","codec_tag":"0x6134706d","sample_fmt":"fltp","sample_rate":"48000","channels":2,"channel_layout":"stereo","bits_per_sample":0,"r_frame_rate":"0\/0","avg_frame_rate":"0\/0","time_base":"1\/48000","start_pts":0,"start_time":"0.000000","duration_ts":72276288,"duration":"1505.756000","bit_rate":"127997","max_bit_rate":"127997","nb_frames":"70581","disposition":{"default":1,"dub":0,"original":0,"comment":0,"lyrics":0,"karaoke":0,"forced":0,"hearing_impaired":0,"visual_impaired":0,"clean_effects":0,"attached_pic":0,"timed_thumbnails":0},"tags":{"language":"und","handler_name":"SoundHandler"}},"bitrate":1882,"rating":"0","season":"1","tmdb_id":"1516406"},"custom_sid":"","added":"1587198084","season":1,"direct_source":""},{"id":"58179","episode_num":2,"title":"High Score Girl - S01E02 - Episodio 2","container_extension":"mp4","info":{"releasedate":"2018-07-21","plot":"","duration_secs":1511,"duration":"00:25:11","movie_image":"http:\/\/216.244.65.74:25461\/images\/665d97fc734b5029206fa8e691b093be.jpg","video":{"index":0,"codec_name":"h264","codec_long_name":"H.264 \/ AVC \/ MPEG-4 AVC \/ MPEG-4 part 10","profile":"High","codec_type":"video","codec_time_base":"1001\/60000","codec_tag_string":"avc1","codec_tag":"0x31637661","width":1280,"height":720,"coded_width":1280,"coded_height":720,"has_b_frames":2,"sample_aspect_ratio":"1:1","display_aspect_ratio":"16:9","pix_fmt":"yuv420p","level":31,"chroma_location":"left","refs":1,"is_avc":"true","nal_length_size":"4","r_frame_rate":"30000\/1001","avg_frame_rate":"30000\/1001","time_base":"1\/30000","start_pts":0,"start_time":"0.000000","duration_ts":45348303,"duration":"1511.610100","bit_rate":"1439606","bits_per_raw_sample":"8","nb_frames":"45303","disposition":{"default":1,"dub":0,"original":0,"comment":0,"lyrics":0,"karaoke":0,"forced":0,"hearing_impaired":0,"visual_impaired":0,"clean_effects":0,"attached_pic":0,"timed_thumbnails":0},"tags":{"language":"und","handler_name":"VideoHandler"}},"audio":{"index":1,"codec_name":"aac","codec_long_name":"AAC (Advanced Audio Coding)","profile":"LC","codec_type":"audio","codec_time_base":"1\/48000","codec_tag_string":"mp4a","codec_tag":"0x6134706d","sample_fmt":"fltp","sample_rate":"48000","channels":2,"channel_layout":"stereo","bits_per_sample":0,"r_frame_rate":"0\/0","avg_frame_rate":"0\/0","time_base":"1\/48000","start_pts":0,"start_time":"0.000000","duration_ts":72564064,"duration":"1511.751333","bit_rate":"127997","max_bit_rate":"127997","nb_frames":"70862","disposition":{"default":1,"dub":0,"original":0,"comment":0,"lyrics":0,"karaoke":0,"forced":0,"hearing_impaired":0,"visual_impaired":0,"clean_effects":0,"attached_pic":0,"timed_thumbnails":0},"tags":{"language":"und","handler_name":"SoundHandler"}},"bitrate":1578,"rating":"0","season":"1","tmdb_id":"1527949"},"custom_sid":"","added":"1587198084","season":1,"direct_source":""},{"id":"58180","episode_num":3,"title":"High Score Girl - S01E03 - Episodio 3","container_extension":"mp4","info":{"releasedate":"2018-07-28","plot":"","duration_secs":1509,"duration":"00:25:09","movie_image":"http:\/\/216.244.65.74:25461\/images\/170b09882207609ff67a243b5f9c4d63.jpg","video":{"index":0,"codec_name":"h264","codec_long_name":"H.264 \/ AVC \/ MPEG-4 AVC \/ MPEG-4 part 10","profile":"High","codec_type":"video","codec_time_base":"1001\/60000","codec_tag_string":"avc1","codec_tag":"0x31637661","width":1280,"height":720,"coded_width":1280,"coded_height":720,"has_b_frames":2,"sample_aspect_ratio":"1:1","display_aspect_ratio":"16:9","pix_fmt":"yuv420p","level":31,"chroma_location":"left","refs":1,"is_avc":"true","nal_length_size":"4","r_frame_rate":"30000\/1001","avg_frame_rate":"30000\/1001","time_base":"1\/30000","start_pts":0,"start_time":"0.000000","duration_ts":45288243,"duration":"1509.608100","bit_rate":"1527512","bits_per_raw_sample":"8","nb_frames":"45243","disposition":{"default":1,"dub":0,"original":0,"comment":0,"lyrics":0,"karaoke":0,"forced":0,"hearing_impaired":0,"visual_impaired":0,"clean_effects":0,"attached_pic":0,"timed_thumbnails":0},"tags":{"language":"und","handler_name":"VideoHandler"}},"audio":{"index":1,"codec_name":"aac","codec_long_name":"AAC (Advanced Audio Coding)","profile":"LC","codec_type":"audio","codec_time_base":"1\/48000","codec_tag_string":"mp4a","codec_tag":"0x6134706d","sample_fmt":"fltp","sample_rate":"48000","channels":2,"channel_layout":"stereo","bits_per_sample":0,"r_frame_rate":"0\/0","avg_frame_rate":"0\/0","time_base":"1\/48000","start_pts":0,"start_time":"0.000000","duration_ts":72468352,"duration":"1509.757333","bit_rate":"127998","max_bit_rate":"127998","nb_frames":"70769","disposition":{"default":1,"dub":0,"original":0,"comment":0,"lyrics":0,"karaoke":0,"forced":0,"hearing_impaired":0,"visual_impaired":0,"clean_effects":0,"attached_pic":0,"timed_thumbnails":0},"tags":{"language":"und","handler_name":"SoundHandler"}},"bitrate":1667,"rating":"0","season":"1","tmdb_id":"1527950"},"custom_sid":"","added":"1587198084","season":1,"direct_source":""},{"id":"58181","episode_num":4,"title":"High Score Girl - S01E04 - Episodio 4","container_extension":"mp4","info":{"releasedate":"2018-08-04","plot":"","duration_secs":1501,"duration":"00:25:01","movie_image":"http:\/\/216.244.65.74:25461\/images\/447c6dae30348def3e41a0f5015fbc30.jpg","video":{"index":0,"codec_name":"h264","codec_long_name":"H.264 \/ AVC \/ MPEG-4 AVC \/ MPEG-4 part 10","profile":"High","codec_type":"video","codec_time_base":"1001\/60000","codec_tag_string":"avc1","codec_tag":"0x31637661","width":1280,"height":720,"coded_width":1280,"coded_height":720,"has_b_frames":2,"sample_aspect_ratio":"1:1","display_aspect_ratio":"16:9","pix_fmt":"yuv420p","level":31,"chroma_location":"left","refs":1,"is_avc":"true","nal_length_size":"4","r_frame_rate":"30000\/1001","avg_frame_rate":"30000\/1001","time_base":"1\/30000","start_pts":0,"start_time":"0.000000","duration_ts":45048003,"duration":"1501.600100","bit_rate":"1376209","bits_per_raw_sample":"8","nb_frames":"45003","disposition":{"default":1,"dub":0,"original":0,"comment":0,"lyrics":0,"karaoke":0,"forced":0,"hearing_impaired":0,"visual_impaired":0,"clean_effects":0,"attached_pic":0,"timed_thumbnails":0},"tags":{"language":"und","handler_name":"VideoHandler"}},"audio":{"index":1,"codec_name":"aac","codec_long_name":"AAC (Advanced Audio Coding)","profile":"LC","codec_type":"audio","codec_time_base":"1\/48000","codec_tag_string":"mp4a","codec_tag":"0x6134706d","sample_fmt":"fltp","sample_rate":"48000","channels":2,"channel_layout":"stereo","bits_per_sample":0,"r_frame_rate":"0\/0","avg_frame_rate":"0\/0","time_base":"1\/48000","start_pts":0,"start_time":"0.000000","duration_ts":72082704,"duration":"1501.723000","bit_rate":"127997","max_bit_rate":"127997","nb_frames":"70392","disposition":{"default":1,"dub":0,"original":0,"comment":0,"lyrics":0,"karaoke":0,"forced":0,"hearing_impaired":0,"visual_impaired":0,"clean_effects":0,"attached_pic":0,"timed_thumbnails":0},"tags":{"language":"und","handler_name":"SoundHandler"}},"bitrate":1515,"rating":"0","season":"1","tmdb_id":"1535329"},"custom_sid":"","added":"1587198084","season":1,"direct_source":""},{"id":"58182","episode_num":5,"title":"High Score Girl - S01E05 - Episodio 5","container_extension":"mp4","info":{"releasedate":"2018-08-11","plot":"","duration_secs":1509,"duration":"00:25:09","movie_image":"http:\/\/216.244.65.74:25461\/images\/e8987dc16d3c7e3766523a09f5062d4b.jpg","video":{"index":0,"codec_name":"h264","codec_long_name":"H.264 \/ AVC \/ MPEG-4 AVC \/ MPEG-4 part 10","profile":"High","codec_type":"video","codec_time_base":"1001\/60000","codec_tag_string":"avc1","codec_tag":"0x31637661","width":1280,"height":720,"coded_width":1280,"coded_height":720,"has_b_frames":2,"sample_aspect_ratio":"1:1","display_aspect_ratio":"16:9","pix_fmt":"yuv420p","level":31,"chroma_location":"left","refs":1,"is_avc":"true","nal_length_size":"4","r_frame_rate":"30000\/1001","avg_frame_rate":"30000\/1001","time_base":"1\/30000","start_pts":0,"start_time":"0.000000","duration_ts":45288243,"duration":"1509.608100","bit_rate":"1726990","bits_per_raw_sample":"8","nb_frames":"45243","disposition":{"default":1,"dub":0,"original":0,"comment":0,"lyrics":0,"karaoke":0,"forced":0,"hearing_impaired":0,"visual_impaired":0,"clean_effects":0,"attached_pic":0,"timed_thumbnails":0},"tags":{"language":"und","handler_name":"VideoHandler"}},"audio":{"index":1,"codec_name":"aac","codec_long_name":"AAC (Advanced Audio Coding)","profile":"LC","codec_type":"audio","codec_time_base":"1\/48000","codec_tag_string":"mp4a","codec_tag":"0x6134706d","sample_fmt":"fltp","sample_rate":"48000","channels":2,"channel_layout":"stereo","bits_per_sample":0,"r_frame_rate":"0\/0","avg_frame_rate":"0\/0","time_base":"1\/48000","start_pts":0,"start_time":"0.000000","duration_ts":72466816,"duration":"1509.725333","bit_rate":"128001","max_bit_rate":"128001","nb_frames":"70769","disposition":{"default":1,"dub":0,"original":0,"comment":0,"lyrics":0,"karaoke":0,"forced":0,"hearing_impaired":0,"visual_impaired":0,"clean_effects":0,"attached_pic":0,"timed_thumbnails":0},"tags":{"language":"und","handler_name":"SoundHandler"}},"bitrate":1865,"rating":"0","season":"1","tmdb_id":"1535331"},"custom_sid":"","added":"1587198084","season":1,"direct_source":""},{"id":"58183","episode_num":6,"title":"High Score Girl - S01E06 - Episodio 6","container_extension":"mp4","info":{"releasedate":"2018-08-18","plot":"","duration_secs":1509,"duration":"00:25:09","movie_image":"http:\/\/216.244.65.74:25461\/images\/b928085aff080a4a66e79994592f17e6.jpg","video":{"index":0,"codec_name":"h264","codec_long_name":"H.264 \/ AVC \/ MPEG-4 AVC \/ MPEG-4 part 10","profile":"High","codec_type":"video","codec_time_base":"1001\/60000","codec_tag_string":"avc1","codec_tag":"0x31637661","width":1280,"height":720,"coded_width":1280,"coded_height":720,"has_b_frames":2,"sample_aspect_ratio":"1:1","display_aspect_ratio":"16:9","pix_fmt":"yuv420p","level":31,"chroma_location":"left","refs":1,"is_avc":"true","nal_length_size":"4","r_frame_rate":"30000\/1001","avg_frame_rate":"30000\/1001","time_base":"1\/30000","start_pts":0,"start_time":"0.000000","duration_ts":45288243,"duration":"1509.608100","bit_rate":"1606835","bits_per_raw_sample":"8","nb_frames":"45243","disposition":{"default":1,"dub":0,"original":0,"comment":0,"lyrics":0,"karaoke":0,"forced":0,"hearing_impaired":0,"visual_impaired":0,"clean_effects":0,"attached_pic":0,"timed_thumbnails":0},"tags":{"language":"und","handler_name":"VideoHandler"}},"audio":{"index":1,"codec_name":"aac","codec_long_name":"AAC (Advanced Audio Coding)","profile":"LC","codec_type":"audio","codec_time_base":"1\/48000","codec_tag_string":"mp4a","codec_tag":"0x6134706d","sample_fmt":"fltp","sample_rate":"48000","channels":2,"channel_layout":"stereo","bits_per_sample":0,"r_frame_rate":"0\/0","avg_frame_rate":"0\/0","time_base":"1\/48000","start_pts":0,"start_time":"0.000000","duration_ts":72468880,"duration":"1509.768333","bit_rate":"127997","max_bit_rate":"127997","nb_frames":"70769","disposition":{"default":1,"dub":0,"original":0,"comment":0,"lyrics":0,"karaoke":0,"forced":0,"hearing_impaired":0,"visual_impaired":0,"clean_effects":0,"attached_pic":0,"timed_thumbnails":0},"tags":{"language":"und","handler_name":"SoundHandler"}},"bitrate":1745,"rating":"0","season":"1","tmdb_id":"1535332"},"custom_sid":"","added":"1587198084","season":1,"direct_source":""},{"id":"58184","episode_num":7,"title":"High Score Girl - S01E07 - Episodio 7","container_extension":"mp4","info":{"releasedate":"2018-08-25","plot":"","duration_secs":1511,"duration":"00:25:11","movie_image":"http:\/\/216.244.65.74:25461\/images\/fe69a547626661226ab9acdc514bf239.jpg","video":{"index":0,"codec_name":"h264","codec_long_name":"H.264 \/ AVC \/ MPEG-4 AVC \/ MPEG-4 part 10","profile":"High","codec_type":"video","codec_time_base":"1001\/60000","codec_tag_string":"avc1","codec_tag":"0x31637661","width":1280,"height":720,"coded_width":1280,"coded_height":720,"has_b_frames":2,"sample_aspect_ratio":"1:1","display_aspect_ratio":"16:9","pix_fmt":"yuv420p","level":31,"chroma_location":"left","refs":1,"is_avc":"true","nal_length_size":"4","r_frame_rate":"30000\/1001","avg_frame_rate":"30000\/1001","time_base":"1\/30000","start_pts":0,"start_time":"0.000000","duration_ts":45348303,"duration":"1511.610100","bit_rate":"1298375","bits_per_raw_sample":"8","nb_frames":"45303","disposition":{"default":1,"dub":0,"original":0,"comment":0,"lyrics":0,"karaoke":0,"forced":0,"hearing_impaired":0,"visual_impaired":0,"clean_effects":0,"attached_pic":0,"timed_thumbnails":0},"tags":{"language":"und","handler_name":"VideoHandler"}},"audio":{"index":1,"codec_name":"aac","codec_long_name":"AAC (Advanced Audio Coding)","profile":"LC","codec_type":"audio","codec_time_base":"1\/48000","codec_tag_string":"mp4a","codec_tag":"0x6134706d","sample_fmt":"fltp","sample_rate":"48000","channels":2,"channel_layout":"stereo","bits_per_sample":0,"r_frame_rate":"0\/0","avg_frame_rate":"0\/0","time_base":"1\/48000","start_pts":0,"start_time":"0.000000","duration_ts":72563520,"duration":"1511.740000","bit_rate":"128000","max_bit_rate":"128000","nb_frames":"70863","disposition":{"default":1,"dub":0,"original":0,"comment":0,"lyrics":0,"karaoke":0,"forced":0,"hearing_impaired":0,"visual_impaired":0,"clean_effects":0,"attached_pic":0,"timed_thumbnails":0},"tags":{"language":"und","handler_name":"SoundHandler"}},"bitrate":1437,"rating":"0","season":"1","tmdb_id":"1535333"},"custom_sid":"","added":"1587198084","season":1,"direct_source":""},{"id":"58185","episode_num":8,"title":"High Score Girl - S01E08 - Episodio 8","container_extension":"mp4","info":{"releasedate":"2018-09-01","plot":"","duration_secs":1509,"duration":"00:25:09","movie_image":"http:\/\/216.244.65.74:25461\/images\/1bdcbc043fd292aff40ac51b63e7a353.jpg","video":{"index":0,"codec_name":"h264","codec_long_name":"H.264 \/ AVC \/ MPEG-4 AVC \/ MPEG-4 part 10","profile":"High","codec_type":"video","codec_time_base":"1001\/60000","codec_tag_string":"avc1","codec_tag":"0x31637661","width":1280,"height":720,"coded_width":1280,"coded_height":720,"has_b_frames":2,"sample_aspect_ratio":"1:1","display_aspect_ratio":"16:9","pix_fmt":"yuv420p","level":31,"chroma_location":"left","refs":1,"is_avc":"true","nal_length_size":"4","r_frame_rate":"30000\/1001","avg_frame_rate":"30000\/1001","time_base":"1\/30000","start_pts":0,"start_time":"0.000000","duration_ts":45288243,"duration":"1509.608100","bit_rate":"1496178","bits_per_raw_sample":"8","nb_frames":"45243","disposition":{"default":1,"dub":0,"original":0,"comment":0,"lyrics":0,"karaoke":0,"forced":0,"hearing_impaired":0,"visual_impaired":0,"clean_effects":0,"attached_pic":0,"timed_thumbnails":0},"tags":{"language":"und","handler_name":"VideoHandler"}},"audio":{"index":1,"codec_name":"aac","codec_long_name":"AAC (Advanced Audio Coding)","profile":"LC","codec_type":"audio","codec_time_base":"1\/48000","codec_tag_string":"mp4a","codec_tag":"0x6134706d","sample_fmt":"fltp","sample_rate":"48000","channels":2,"channel_layout":"stereo","bits_per_sample":0,"r_frame_rate":"0\/0","avg_frame_rate":"0\/0","time_base":"1\/48000","start_pts":0,"start_time":"0.000000","duration_ts":72468880,"duration":"1509.768333","bit_rate":"127997","max_bit_rate":"127997","nb_frames":"70769","disposition":{"default":1,"dub":0,"original":0,"comment":0,"lyrics":0,"karaoke":0,"forced":0,"hearing_impaired":0,"visual_impaired":0,"clean_effects":0,"attached_pic":0,"timed_thumbnails":0},"tags":{"language":"und","handler_name":"SoundHandler"}},"bitrate":1634,"rating":"0","season":"1","tmdb_id":"1535334"},"custom_sid":"","added":"1587198084","season":1,"direct_source":""},{"id":"58186","episode_num":9,"title":"High Score Girl - S01E09 - Episodio 9","container_extension":"mp4","info":{"releasedate":"2018-09-08","plot":"","duration_secs":1509,"duration":"00:25:09","movie_image":"http:\/\/216.244.65.74:25461\/images\/6d77dd05e7e1815fe891423dd9a917d5.jpg","video":{"index":0,"codec_name":"h264","codec_long_name":"H.264 \/ AVC \/ MPEG-4 AVC \/ MPEG-4 part 10","profile":"High","codec_type":"video","codec_time_base":"1001\/60000","codec_tag_string":"avc1","codec_tag":"0x31637661","width":1280,"height":720,"coded_width":1280,"coded_height":720,"has_b_frames":2,"sample_aspect_ratio":"1:1","display_aspect_ratio":"16:9","pix_fmt":"yuv420p","level":31,"chroma_location":"left","refs":1,"is_avc":"true","nal_length_size":"4","r_frame_rate":"30000\/1001","avg_frame_rate":"30000\/1001","time_base":"1\/30000","start_pts":0,"start_time":"0.000000","duration_ts":45288243,"duration":"1509.608100","bit_rate":"1449132","bits_per_raw_sample":"8","nb_frames":"45243","disposition":{"default":1,"dub":0,"original":0,"comment":0,"lyrics":0,"karaoke":0,"forced":0,"hearing_impaired":0,"visual_impaired":0,"clean_effects":0,"attached_pic":0,"timed_thumbnails":0},"tags":{"language":"und","handler_name":"VideoHandler"}},"audio":{"index":1,"codec_name":"aac","codec_long_name":"AAC (Advanced Audio Coding)","profile":"LC","codec_type":"audio","codec_time_base":"1\/48000","codec_tag_string":"mp4a","codec_tag":"0x6134706d","sample_fmt":"fltp","sample_rate":"48000","channels":2,"channel_layout":"stereo","bits_per_sample":0,"r_frame_rate":"0\/0","avg_frame_rate":"0\/0","time_base":"1\/48000","start_pts":0,"start_time":"0.000000","duration_ts":72468352,"duration":"1509.757333","bit_rate":"127998","max_bit_rate":"127998","nb_frames":"70769","disposition":{"default":1,"dub":0,"original":0,"comment":0,"lyrics":0,"karaoke":0,"forced":0,"hearing_impaired":0,"visual_impaired":0,"clean_effects":0,"attached_pic":0,"timed_thumbnails":0},"tags":{"language":"und","handler_name":"SoundHandler"}},"bitrate":1588,"rating":"0","season":"1","tmdb_id":"1535335"},"custom_sid":"","added":"1587198084","season":1,"direct_source":""},{"id":"58187","episode_num":10,"title":"High Score Girl - S01E10 - Episodio 10","container_extension":"mp4","info":{"releasedate":"2018-09-15","plot":"","duration_secs":1509,"duration":"00:25:09","movie_image":"http:\/\/216.244.65.74:25461\/images\/a753a5215e6b4f6f77b01c2a2a082d13.jpg","video":{"index":0,"codec_name":"h264","codec_long_name":"H.264 \/ AVC \/ MPEG-4 AVC \/ MPEG-4 part 10","profile":"High","codec_type":"video","codec_time_base":"1001\/60000","codec_tag_string":"avc1","codec_tag":"0x31637661","width":1280,"height":720,"coded_width":1280,"coded_height":720,"has_b_frames":2,"sample_aspect_ratio":"1:1","display_aspect_ratio":"16:9","pix_fmt":"yuv420p","level":31,"chroma_location":"left","refs":1,"is_avc":"true","nal_length_size":"4","r_frame_rate":"30000\/1001","avg_frame_rate":"30000\/1001","time_base":"1\/30000","start_pts":0,"start_time":"0.000000","duration_ts":45288243,"duration":"1509.608100","bit_rate":"1598570","bits_per_raw_sample":"8","nb_frames":"45243","disposition":{"default":1,"dub":0,"original":0,"comment":0,"lyrics":0,"karaoke":0,"forced":0,"hearing_impaired":0,"visual_impaired":0,"clean_effects":0,"attached_pic":0,"timed_thumbnails":0},"tags":{"language":"und","handler_name":"VideoHandler"}},"audio":{"index":1,"codec_name":"aac","codec_long_name":"AAC (Advanced Audio Coding)","profile":"LC","codec_type":"audio","codec_time_base":"1\/48000","codec_tag_string":"mp4a","codec_tag":"0x6134706d","sample_fmt":"fltp","sample_rate":"48000","channels":2,"channel_layout":"stereo","bits_per_sample":0,"r_frame_rate":"0\/0","avg_frame_rate":"0\/0","time_base":"1\/48000","start_pts":0,"start_time":"0.000000","duration_ts":72466816,"duration":"1509.725333","bit_rate":"128001","max_bit_rate":"128001","nb_frames":"70769","disposition":{"default":1,"dub":0,"original":0,"comment":0,"lyrics":0,"karaoke":0,"forced":0,"hearing_impaired":0,"visual_impaired":0,"clean_effects":0,"attached_pic":0,"timed_thumbnails":0},"tags":{"language":"und","handler_name":"SoundHandler"}},"bitrate":1737,"rating":"0","season":"1","tmdb_id":"1535336"},"custom_sid":"","added":"1587198084","season":1,"direct_source":""},{"id":"58188","episode_num":11,"title":"High Score Girl - S01E11 - Episodio 11","container_extension":"mp4","info":{"releasedate":"2018-09-22","plot":"","duration_secs":1511,"duration":"00:25:11","movie_image":"http:\/\/216.244.65.74:25461\/images\/a796e06fa71f007238852a10ee0963c5.jpg","video":{"index":0,"codec_name":"h264","codec_long_name":"H.264 \/ AVC \/ MPEG-4 AVC \/ MPEG-4 part 10","profile":"High","codec_type":"video","codec_time_base":"1001\/60000","codec_tag_string":"avc1","codec_tag":"0x31637661","width":1280,"height":720,"coded_width":1280,"coded_height":720,"has_b_frames":2,"sample_aspect_ratio":"1:1","display_aspect_ratio":"16:9","pix_fmt":"yuv420p","level":31,"chroma_location":"left","refs":1,"is_avc":"true","nal_length_size":"4","r_frame_rate":"30000\/1001","avg_frame_rate":"30000\/1001","time_base":"1\/30000","start_pts":0,"start_time":"0.000000","duration_ts":45348303,"duration":"1511.610100","bit_rate":"1313081","bits_per_raw_sample":"8","nb_frames":"45303","disposition":{"default":1,"dub":0,"original":0,"comment":0,"lyrics":0,"karaoke":0,"forced":0,"hearing_impaired":0,"visual_impaired":0,"clean_effects":0,"attached_pic":0,"timed_thumbnails":0},"tags":{"language":"und","handler_name":"VideoHandler"}},"audio":{"index":1,"codec_name":"aac","codec_long_name":"AAC (Advanced Audio Coding)","profile":"LC","codec_type":"audio","codec_time_base":"1\/48000","codec_tag_string":"mp4a","codec_tag":"0x6134706d","sample_fmt":"fltp","sample_rate":"48000","channels":2,"channel_layout":"stereo","bits_per_sample":0,"r_frame_rate":"0\/0","avg_frame_rate":"0\/0","time_base":"1\/48000","start_pts":0,"start_time":"0.000000","duration_ts":72565056,"duration":"1511.772000","bit_rate":"127997","max_bit_rate":"127997","nb_frames":"70863","disposition":{"default":1,"dub":0,"original":0,"comment":0,"lyrics":0,"karaoke":0,"forced":0,"hearing_impaired":0,"visual_impaired":0,"clean_effects":0,"attached_pic":0,"timed_thumbnails":0},"tags":{"language":"und","handler_name":"SoundHandler"}},"bitrate":1452,"rating":"0","season":"1","tmdb_id":"1535337"},"custom_sid":"","added":"1587198084","season":1,"direct_source":""},{"id":"58189","episode_num":12,"title":"High Score Girl - S01E12 - Episodio 12","container_extension":"mp4","info":{"releasedate":"2018-09-29","plot":"","duration_secs":1491,"duration":"00:24:51","movie_image":"http:\/\/216.244.65.74:25461\/images\/2f22cc8528f4644c5491e682dbaa4120.jpg","video":{"index":0,"codec_name":"h264","codec_long_name":"H.264 \/ AVC \/ MPEG-4 AVC \/ MPEG-4 part 10","profile":"High","codec_type":"video","codec_time_base":"1001\/60000","codec_tag_string":"avc1","codec_tag":"0x31637661","width":1280,"height":720,"coded_width":1280,"coded_height":720,"has_b_frames":2,"sample_aspect_ratio":"1:1","display_aspect_ratio":"16:9","pix_fmt":"yuv420p","level":31,"chroma_location":"left","refs":1,"is_avc":"true","nal_length_size":"4","r_frame_rate":"30000\/1001","avg_frame_rate":"30000\/1001","time_base":"1\/30000","start_pts":0,"start_time":"0.000000","duration_ts":44747703,"duration":"1491.590100","bit_rate":"1145665","bits_per_raw_sample":"8","nb_frames":"44703","disposition":{"default":1,"dub":0,"original":0,"comment":0,"lyrics":0,"karaoke":0,"forced":0,"hearing_impaired":0,"visual_impaired":0,"clean_effects":0,"attached_pic":0,"timed_thumbnails":0},"tags":{"language":"und","handler_name":"VideoHandler"}},"audio":{"index":1,"codec_name":"aac","codec_long_name":"AAC (Advanced Audio Coding)","profile":"LC","codec_type":"audio","codec_time_base":"1\/48000","codec_tag_string":"mp4a","codec_tag":"0x6134706d","sample_fmt":"fltp","sample_rate":"48000","channels":2,"channel_layout":"stereo","bits_per_sample":0,"r_frame_rate":"0\/0","avg_frame_rate":"0\/0","time_base":"1\/48000","start_pts":0,"start_time":"0.000000","duration_ts":71600512,"duration":"1491.677333","bit_rate":"128001","max_bit_rate":"128001","nb_frames":"69923","disposition":{"default":1,"dub":0,"original":0,"comment":0,"lyrics":0,"karaoke":0,"forced":0,"hearing_impaired":0,"visual_impaired":0,"clean_effects":0,"attached_pic":0,"timed_thumbnails":0},"tags":{"language":"und","handler_name":"SoundHandler"}},"bitrate":1284,"rating":"0","season":"1","tmdb_id":"1535338"},"custom_sid":"","added":"1587198084","season":1,"direct_source":""}],"2":[{"id":"58190","episode_num":1,"title":"High Score Girl - S02E01 - Episodio 1","container_extension":"mkv","info":{"releasedate":"2019-10-25","plot":"","duration_secs":1463,"duration":"00:24:23","movie_image":"http:\/\/216.244.65.74:25461\/images\/df99c4e79e6f097f1dabae91fe6e2db9.jpg","video":{"index":0,"codec_name":"h264","codec_long_name":"H.264 \/ AVC \/ MPEG-4 AVC \/ MPEG-4 part 10","profile":"Main","codec_type":"video","codec_time_base":"1001\/60000","codec_tag_string":"[0][0][0][0]","codec_tag":"0x0000","width":1280,"height":720,"coded_width":1280,"coded_height":720,"has_b_frames":1,"sample_aspect_ratio":"1:1","display_aspect_ratio":"16:9","pix_fmt":"yuv420p","level":31,"chroma_location":"left","field_order":"progressive","refs":1,"is_avc":"true","nal_length_size":"4","r_frame_rate":"30000\/1001","avg_frame_rate":"30000\/1001","time_base":"1\/1000","start_pts":0,"start_time":"0.000000","bits_per_raw_sample":"8","disposition":{"default":1,"dub":0,"original":0,"comment":0,"lyrics":0,"karaoke":0,"forced":0,"hearing_impaired":0,"visual_impaired":0,"clean_effects":0,"attached_pic":0,"timed_thumbnails":0},"tags":{"BPS-eng":"2329440","DURATION-eng":"00:24:23.795000000","NUMBER_OF_FRAMES-eng":"43870","NUMBER_OF_BYTES-eng":"426227865","_STATISTICS_WRITING_APP-eng":"mkvmerge v35.0.0 ('All The Love In The World') 64-bit","_STATISTICS_WRITING_DATE_UTC-eng":"2020-05-01 03:09:05","_STATISTICS_TAGS-eng":"BPS DURATION NUMBER_OF_FRAMES NUMBER_OF_BYTES","DURATION":"00:24:23.795000000"}},"audio":{"index":2,"codec_name":"aac","codec_long_name":"AAC (Advanced Audio Coding)","profile":"HE-AAC","codec_type":"audio","codec_time_base":"1\/48000","codec_tag_string":"[0][0][0][0]","codec_tag":"0x0000","sample_fmt":"fltp","sample_rate":"48000","channels":2,"channel_layout":"stereo","bits_per_sample":0,"r_frame_rate":"0\/0","avg_frame_rate":"0\/0","time_base":"1\/1000","start_pts":0,"start_time":"0.000000","disposition":{"default":0,"dub":0,"original":0,"comment":0,"lyrics":0,"karaoke":0,"forced":0,"hearing_impaired":0,"visual_impaired":0,"clean_effects":0,"attached_pic":0,"timed_thumbnails":0},"tags":{"language":"jpn","title":"Japanese","BPS-eng":"127999","DURATION-eng":"00:24:23.894000000","NUMBER_OF_FRAMES-eng":"34310","NUMBER_OF_BYTES-eng":"23422293","_STATISTICS_WRITING_APP-eng":"mkvmerge v35.0.0 ('All The Love In The World') 64-bit","_STATISTICS_WRITING_DATE_UTC-eng":"2020-05-01 03:09:05","_STATISTICS_TAGS-eng":"BPS DURATION NUMBER_OF_FRAMES NUMBER_OF_BYTES","DURATION":"00:24:23.893000000"}},"bitrate":2592,"rating":"0","season":"2","tmdb_id":"1945221"},"custom_sid":"","added":"1587198114","season":2,"direct_source":""},{"id":"58191","episode_num":2,"title":"High Score Girl - S02E02 - Episodio 2","container_extension":"mp4","info":{"releasedate":"2019-11-01","plot":"","duration_secs":1465,"duration":"00:24:25","movie_image":"http:\/\/216.244.65.74:25461\/images\/0aea396c7684c87bd44778cbb1b48359.jpg","video":{"index":0,"codec_name":"h264","codec_long_name":"H.264 \/ AVC \/ MPEG-4 AVC \/ MPEG-4 part 10","profile":"Main","codec_type":"video","codec_time_base":"11726379\/702880000","codec_tag_string":"avc1","codec_tag":"0x31637661","width":1280,"height":720,"coded_width":1280,"coded_height":720,"has_b_frames":1,"sample_aspect_ratio":"1:1","display_aspect_ratio":"16:9","pix_fmt":"yuv420p","level":31,"chroma_location":"left","refs":1,"is_avc":"true","nal_length_size":"4","r_frame_rate":"30000\/1001","avg_frame_rate":"351440000\/11726379","time_base":"1\/16000","start_pts":0,"start_time":"0.000000","duration_ts":23452758,"duration":"1465.797375","bit_rate":"2695090","bits_per_raw_sample":"8","nb_frames":"43930","disposition":{"default":1,"dub":0,"original":0,"comment":0,"lyrics":0,"karaoke":0,"forced":0,"hearing_impaired":0,"visual_impaired":0,"clean_effects":0,"attached_pic":0,"timed_thumbnails":0},"tags":{"language":"und","handler_name":"VideoHandler"}},"audio":{"index":2,"codec_name":"aac","codec_long_name":"AAC (Advanced Audio Coding)","profile":"HE-AAC","codec_type":"audio","codec_time_base":"1\/48000","codec_tag_string":"mp4a","codec_tag":"0x6134706d","sample_fmt":"fltp","sample_rate":"48000","channels":2,"channel_layout":"stereo","bits_per_sample":0,"r_frame_rate":"0\/0","avg_frame_rate":"0\/0","time_base":"1\/48000","start_pts":0,"start_time":"0.000000","duration_ts":70363128,"duration":"1465.898500","bit_rate":"128000","max_bit_rate":"128000","nb_frames":"34357","disposition":{"default":0,"dub":0,"original":0,"comment":0,"lyrics":0,"karaoke":0,"forced":0,"hearing_impaired":0,"visual_impaired":0,"clean_effects":0,"attached_pic":0,"timed_thumbnails":0},"tags":{"language":"jpn","handler_name":"SoundHandler"}},"bitrate":2963,"rating":"0","season":"2","tmdb_id":"1974091"},"custom_sid":"","added":"1587198114","season":2,"direct_source":""},{"id":"58192","episode_num":3,"title":"High Score Girl - S02E03 - Episodio 3","container_extension":"mp4","info":{"releasedate":"2019-11-08","plot":"","duration_secs":1463,"duration":"00:24:23","movie_image":"http:\/\/216.244.65.74:25461\/images\/ed65e3521591da6534380ba417ad973a.jpg","video":{"index":0,"codec_name":"h264","codec_long_name":"H.264 \/ AVC \/ MPEG-4 AVC \/ MPEG-4 part 10","profile":"Main","codec_type":"video","codec_time_base":"11710363\/701920000","codec_tag_string":"avc1","codec_tag":"0x31637661","width":1280,"height":720,"coded_width":1280,"coded_height":720,"has_b_frames":1,"sample_aspect_ratio":"1:1","display_aspect_ratio":"16:9","pix_fmt":"yuv420p","level":31,"chroma_location":"left","refs":1,"is_avc":"true","nal_length_size":"4","r_frame_rate":"30000\/1001","avg_frame_rate":"350960000\/11710363","time_base":"1\/16000","start_pts":0,"start_time":"0.000000","duration_ts":23420726,"duration":"1463.795375","bit_rate":"2690510","bits_per_raw_sample":"8","nb_frames":"43870","disposition":{"default":1,"dub":0,"original":0,"comment":0,"lyrics":0,"karaoke":0,"forced":0,"hearing_impaired":0,"visual_impaired":0,"clean_effects":0,"attached_pic":0,"timed_thumbnails":0},"tags":{"language":"und","handler_name":"VideoHandler"}},"audio":{"index":2,"codec_name":"aac","codec_long_name":"AAC (Advanced Audio Coding)","profile":"HE-AAC","codec_type":"audio","codec_time_base":"1\/48000","codec_tag_string":"mp4a","codec_tag":"0x6134706d","sample_fmt":"fltp","sample_rate":"48000","channels":2,"channel_layout":"stereo","bits_per_sample":0,"r_frame_rate":"0\/0","avg_frame_rate":"0\/0","time_base":"1\/48000","start_pts":0,"start_time":"0.000000","duration_ts":70266888,"duration":"1463.893500","bit_rate":"127999","max_bit_rate":"127999","nb_frames":"34310","disposition":{"default":0,"dub":0,"original":0,"comment":0,"lyrics":0,"karaoke":0,"forced":0,"hearing_impaired":0,"visual_impaired":0,"clean_effects":0,"attached_pic":0,"timed_thumbnails":0},"tags":{"language":"jpn","handler_name":"SoundHandler"}},"bitrate":2958,"rating":"0","season":"2","tmdb_id":"1974092"},"custom_sid":"","added":"1587198114","season":2,"direct_source":""},{"id":"58193","episode_num":4,"title":"High Score Girl - S02E04 - Episodio 4","container_extension":"mp4","info":{"releasedate":"2019-11-15","plot":"","duration_secs":1463,"duration":"00:24:23","movie_image":"http:\/\/216.244.65.74:25461\/images\/4d07b527522bb5c581edd894c317538c.jpg","video":{"index":0,"codec_name":"h264","codec_long_name":"H.264 \/ AVC \/ MPEG-4 AVC \/ MPEG-4 part 10","profile":"Main","codec_type":"video","codec_time_base":"11710363\/701920000","codec_tag_string":"avc1","codec_tag":"0x31637661","width":1280,"height":720,"coded_width":1280,"coded_height":720,"has_b_frames":1,"sample_aspect_ratio":"1:1","display_aspect_ratio":"16:9","pix_fmt":"yuv420p","level":31,"chroma_location":"left","refs":1,"is_avc":"true","nal_length_size":"4","r_frame_rate":"30000\/1001","avg_frame_rate":"350960000\/11710363","time_base":"1\/16000","start_pts":0,"start_time":"0.000000","duration_ts":23420726,"duration":"1463.795375","bit_rate":"2106035","bits_per_raw_sample":"8","nb_frames":"43870","disposition":{"default":1,"dub":0,"original":0,"comment":0,"lyrics":0,"karaoke":0,"forced":0,"hearing_impaired":0,"visual_impaired":0,"clean_effects":0,"attached_pic":0,"timed_thumbnails":0},"tags":{"language":"und","handler_name":"VideoHandler"}},"audio":{"index":2,"codec_name":"aac","codec_long_name":"AAC (Advanced Audio Coding)","profile":"HE-AAC","codec_type":"audio","codec_time_base":"1\/48000","codec_tag_string":"mp4a","codec_tag":"0x6134706d","sample_fmt":"fltp","sample_rate":"48000","channels":2,"channel_layout":"stereo","bits_per_sample":0,"r_frame_rate":"0\/0","avg_frame_rate":"0\/0","time_base":"1\/48000","start_pts":0,"start_time":"0.000000","duration_ts":70266888,"duration":"1463.893500","bit_rate":"127999","max_bit_rate":"127999","nb_frames":"34310","disposition":{"default":0,"dub":0,"original":0,"comment":0,"lyrics":0,"karaoke":0,"forced":0,"hearing_impaired":0,"visual_impaired":0,"clean_effects":0,"attached_pic":0,"timed_thumbnails":0},"tags":{"language":"jpn","handler_name":"SoundHandler"}},"bitrate":2373,"rating":"0","season":"2","tmdb_id":"1974093"},"custom_sid":"","added":"1587198114","season":2,"direct_source":""},{"id":"58194","episode_num":5,"title":"High Score Girl - S02E05 - Episodio 5","container_extension":"mp4","info":{"releasedate":"2019-11-22","plot":"","duration_secs":1461,"duration":"00:24:21","movie_image":"http:\/\/216.244.65.74:25461\/images\/c081fdec941dcba81248cbab768aa749.jpg","video":{"index":0,"codec_name":"h264","codec_long_name":"H.264 \/ AVC \/ MPEG-4 AVC \/ MPEG-4 part 10","profile":"Main","codec_type":"video","codec_time_base":"11694347\/700960000","codec_tag_string":"avc1","codec_tag":"0x31637661","width":1280,"height":720,"coded_width":1280,"coded_height":720,"has_b_frames":1,"sample_aspect_ratio":"1:1","display_aspect_ratio":"16:9","pix_fmt":"yuv420p","level":31,"chroma_location":"left","refs":1,"is_avc":"true","nal_length_size":"4","r_frame_rate":"30000\/1001","avg_frame_rate":"350480000\/11694347","time_base":"1\/16000","start_pts":0,"start_time":"0.000000","duration_ts":23388694,"duration":"1461.793375","bit_rate":"2445420","bits_per_raw_sample":"8","nb_frames":"43810","disposition":{"default":1,"dub":0,"original":0,"comment":0,"lyrics":0,"karaoke":0,"forced":0,"hearing_impaired":0,"visual_impaired":0,"clean_effects":0,"attached_pic":0,"timed_thumbnails":0},"tags":{"language":"und","handler_name":"VideoHandler"}},"audio":{"index":2,"codec_name":"aac","codec_long_name":"AAC (Advanced Audio Coding)","profile":"HE-AAC","codec_type":"audio","codec_time_base":"1\/48000","codec_tag_string":"mp4a","codec_tag":"0x6134706d","sample_fmt":"fltp","sample_rate":"48000","channels":2,"channel_layout":"stereo","bits_per_sample":0,"r_frame_rate":"0\/0","avg_frame_rate":"0\/0","time_base":"1\/48000","start_pts":0,"start_time":"0.000000","duration_ts":70170632,"duration":"1461.888167","bit_rate":"127999","max_bit_rate":"127999","nb_frames":"34263","disposition":{"default":0,"dub":0,"original":0,"comment":0,"lyrics":0,"karaoke":0,"forced":0,"hearing_impaired":0,"visual_impaired":0,"clean_effects":0,"attached_pic":0,"timed_thumbnails":0},"tags":{"language":"jpn","handler_name":"SoundHandler"}},"bitrate":2713,"rating":"0","season":"2","tmdb_id":"1993431"},"custom_sid":"","added":"1587198114","season":2,"direct_source":""},{"id":"58195","episode_num":6,"title":"High Score Girl - S02E06 - Episodio 6","container_extension":"mp4","info":{"releasedate":"2019-11-29","plot":"","duration_secs":1463,"duration":"00:24:23","movie_image":"http:\/\/216.244.65.74:25461\/images\/b19e20004b0feb739c44aeb90fc8ddb9.jpg","video":{"index":0,"codec_name":"h264","codec_long_name":"H.264 \/ AVC \/ MPEG-4 AVC \/ MPEG-4 part 10","profile":"Main","codec_type":"video","codec_time_base":"11710363\/701920000","codec_tag_string":"avc1","codec_tag":"0x31637661","width":1280,"height":720,"coded_width":1280,"coded_height":720,"has_b_frames":1,"sample_aspect_ratio":"1:1","display_aspect_ratio":"16:9","pix_fmt":"yuv420p","level":31,"chroma_location":"left","refs":1,"is_avc":"true","nal_length_size":"4","r_frame_rate":"30000\/1001","avg_frame_rate":"350960000\/11710363","time_base":"1\/16000","start_pts":0,"start_time":"0.000000","duration_ts":23420726,"duration":"1463.795375","bit_rate":"2110376","bits_per_raw_sample":"8","nb_frames":"43870","disposition":{"default":1,"dub":0,"original":0,"comment":0,"lyrics":0,"karaoke":0,"forced":0,"hearing_impaired":0,"visual_impaired":0,"clean_effects":0,"attached_pic":0,"timed_thumbnails":0},"tags":{"language":"und","handler_name":"VideoHandler"}},"audio":{"index":2,"codec_name":"aac","codec_long_name":"AAC (Advanced Audio Coding)","profile":"HE-AAC","codec_type":"audio","codec_time_base":"1\/48000","codec_tag_string":"mp4a","codec_tag":"0x6134706d","sample_fmt":"fltp","sample_rate":"48000","channels":2,"channel_layout":"stereo","bits_per_sample":0,"r_frame_rate":"0\/0","avg_frame_rate":"0\/0","time_base":"1\/48000","start_pts":0,"start_time":"0.000000","duration_ts":70266888,"duration":"1463.893500","bit_rate":"127999","max_bit_rate":"127999","nb_frames":"34310","disposition":{"default":0,"dub":0,"original":0,"comment":0,"lyrics":0,"karaoke":0,"forced":0,"hearing_impaired":0,"visual_impaired":0,"clean_effects":0,"attached_pic":0,"timed_thumbnails":0},"tags":{"language":"jpn","handler_name":"SoundHandler"}},"bitrate":2378,"rating":"0","season":"2","tmdb_id":"1993434"},"custom_sid":"","added":"1587198114","season":2,"direct_source":""},{"id":"58196","episode_num":7,"title":"High Score Girl - S02E07 - Episodio 7","container_extension":"mp4","info":{"releasedate":"2019-12-06","plot":"","duration_secs":1461,"duration":"00:24:21","movie_image":"http:\/\/216.244.65.74:25461\/images\/a830c8d0aa1ad7cab065adad7c31894c.jpg","video":{"index":0,"codec_name":"h264","codec_long_name":"H.264 \/ AVC \/ MPEG-4 AVC \/ MPEG-4 part 10","profile":"Main","codec_type":"video","codec_time_base":"11694347\/700960000","codec_tag_string":"avc1","codec_tag":"0x31637661","width":1280,"height":720,"coded_width":1280,"coded_height":720,"has_b_frames":1,"sample_aspect_ratio":"1:1","display_aspect_ratio":"16:9","pix_fmt":"yuv420p","level":31,"chroma_location":"left","refs":1,"is_avc":"true","nal_length_size":"4","r_frame_rate":"30000\/1001","avg_frame_rate":"350480000\/11694347","time_base":"1\/16000","start_pts":0,"start_time":"0.000000","duration_ts":23388694,"duration":"1461.793375","bit_rate":"2959050","bits_per_raw_sample":"8","nb_frames":"43810","disposition":{"default":1,"dub":0,"original":0,"comment":0,"lyrics":0,"karaoke":0,"forced":0,"hearing_impaired":0,"visual_impaired":0,"clean_effects":0,"attached_pic":0,"timed_thumbnails":0},"tags":{"language":"und","handler_name":"VideoHandler"}},"audio":{"index":2,"codec_name":"aac","codec_long_name":"AAC (Advanced Audio Coding)","profile":"HE-AAC","codec_type":"audio","codec_time_base":"1\/48000","codec_tag_string":"mp4a","codec_tag":"0x6134706d","sample_fmt":"fltp","sample_rate":"48000","channels":2,"channel_layout":"stereo","bits_per_sample":0,"r_frame_rate":"0\/0","avg_frame_rate":"0\/0","time_base":"1\/48000","start_pts":0,"start_time":"0.000000","duration_ts":70170632,"duration":"1461.888167","bit_rate":"127999","max_bit_rate":"127999","nb_frames":"34263","disposition":{"default":0,"dub":0,"original":0,"comment":0,"lyrics":0,"karaoke":0,"forced":0,"hearing_impaired":0,"visual_impaired":0,"clean_effects":0,"attached_pic":0,"timed_thumbnails":0},"tags":{"language":"jpn","handler_name":"SoundHandler"}},"bitrate":3227,"rating":"0","season":"2","tmdb_id":"1993435"},"custom_sid":"","added":"1587198114","season":2,"direct_source":""},{"id":"58197","episode_num":8,"title":"High Score Girl - S02E08 - Episodio 8","container_extension":"mp4","info":{"releasedate":"2019-12-13","plot":"","duration_secs":1461,"duration":"00:24:21","movie_image":"http:\/\/216.244.65.74:25461\/images\/943db7d99764e7746ff013969a30e604.jpg","video":{"index":0,"codec_name":"h264","codec_long_name":"H.264 \/ AVC \/ MPEG-4 AVC \/ MPEG-4 part 10","profile":"Main","codec_type":"video","codec_time_base":"11694347\/700960000","codec_tag_string":"avc1","codec_tag":"0x31637661","width":1280,"height":720,"coded_width":1280,"coded_height":720,"has_b_frames":1,"sample_aspect_ratio":"1:1","display_aspect_ratio":"16:9","pix_fmt":"yuv420p","level":31,"chroma_location":"left","refs":1,"is_avc":"true","nal_length_size":"4","r_frame_rate":"30000\/1001","avg_frame_rate":"350480000\/11694347","time_base":"1\/16000","start_pts":0,"start_time":"0.000000","duration_ts":23388694,"duration":"1461.793375","bit_rate":"2561309","bits_per_raw_sample":"8","nb_frames":"43810","disposition":{"default":1,"dub":0,"original":0,"comment":0,"lyrics":0,"karaoke":0,"forced":0,"hearing_impaired":0,"visual_impaired":0,"clean_effects":0,"attached_pic":0,"timed_thumbnails":0},"tags":{"language":"und","handler_name":"VideoHandler"}},"audio":{"index":2,"codec_name":"aac","codec_long_name":"AAC (Advanced Audio Coding)","profile":"HE-AAC","codec_type":"audio","codec_time_base":"1\/48000","codec_tag_string":"mp4a","codec_tag":"0x6134706d","sample_fmt":"fltp","sample_rate":"48000","channels":2,"channel_layout":"stereo","bits_per_sample":0,"r_frame_rate":"0\/0","avg_frame_rate":"0\/0","time_base":"1\/48000","start_pts":0,"start_time":"0.000000","duration_ts":70170632,"duration":"1461.888167","bit_rate":"127999","max_bit_rate":"127999","nb_frames":"34263","disposition":{"default":0,"dub":0,"original":0,"comment":0,"lyrics":0,"karaoke":0,"forced":0,"hearing_impaired":0,"visual_impaired":0,"clean_effects":0,"attached_pic":0,"timed_thumbnails":0},"tags":{"language":"jpn","handler_name":"SoundHandler"}},"bitrate":2829,"rating":"0","season":"2","tmdb_id":"1993436"},"custom_sid":"","added":"1587198114","season":2,"direct_source":""},{"id":"58198","episode_num":9,"title":"High Score Girl - S02E09 - Episodio 9","container_extension":"mp4","info":{"releasedate":"2019-12-20","plot":"","duration_secs":1461,"duration":"00:24:21","movie_image":"http:\/\/216.244.65.74:25461\/images\/de167d15b2d9e2a3e07b039f02581581.jpg","video":{"index":0,"codec_name":"h264","codec_long_name":"H.264 \/ AVC \/ MPEG-4 AVC \/ MPEG-4 part 10","profile":"Main","codec_type":"video","codec_time_base":"11694347\/700960000","codec_tag_string":"avc1","codec_tag":"0x31637661","width":1280,"height":720,"coded_width":1280,"coded_height":720,"has_b_frames":1,"sample_aspect_ratio":"1:1","display_aspect_ratio":"16:9","pix_fmt":"yuv420p","level":31,"chroma_location":"left","refs":1,"is_avc":"true","nal_length_size":"4","r_frame_rate":"30000\/1001","avg_frame_rate":"350480000\/11694347","time_base":"1\/16000","start_pts":0,"start_time":"0.000000","duration_ts":23388694,"duration":"1461.793375","bit_rate":"2211864","bits_per_raw_sample":"8","nb_frames":"43810","disposition":{"default":1,"dub":0,"original":0,"comment":0,"lyrics":0,"karaoke":0,"forced":0,"hearing_impaired":0,"visual_impaired":0,"clean_effects":0,"attached_pic":0,"timed_thumbnails":0},"tags":{"language":"und","handler_name":"VideoHandler"}},"audio":{"index":2,"codec_name":"aac","codec_long_name":"AAC (Advanced Audio Coding)","profile":"HE-AAC","codec_type":"audio","codec_time_base":"1\/48000","codec_tag_string":"mp4a","codec_tag":"0x6134706d","sample_fmt":"fltp","sample_rate":"48000","channels":2,"channel_layout":"stereo","bits_per_sample":0,"r_frame_rate":"0\/0","avg_frame_rate":"0\/0","time_base":"1\/48000","start_pts":0,"start_time":"0.000000","duration_ts":70170632,"duration":"1461.888167","bit_rate":"127999","max_bit_rate":"127999","nb_frames":"34263","disposition":{"default":0,"dub":0,"original":0,"comment":0,"lyrics":0,"karaoke":0,"forced":0,"hearing_impaired":0,"visual_impaired":0,"clean_effects":0,"attached_pic":0,"timed_thumbnails":0},"tags":{"language":"jpn","handler_name":"SoundHandler"}},"bitrate":2479,"rating":"0","season":"2","tmdb_id":"1993437"},"custom_sid":"","added":"1587198114","season":2,"direct_source":""}]}}